<svg width="20" height="21" viewBox="0 0 20 21" fill="none" xmlns="http://www.w3.org/2000/svg">
<path d="M18.9618 11.309C18.8045 13.0112 18.1657 14.6334 17.1201 15.9858C16.0744 17.3382 14.6653 18.3648 13.0575 18.9456C11.4497 19.5263 9.7098 19.6372 8.04132 19.2651C6.37283 18.8931 4.84481 18.0536 3.63604 16.8448C2.42727 15.636 1.58775 14.108 1.21572 12.4395C0.843691 10.7711 0.954531 9.03113 1.53528 7.42334C2.11602 5.81555 3.14265 4.40641 4.49503 3.3608C5.84741 2.31518 7.46961 1.67635 9.17182 1.51904C8.17523 2.86731 7.69566 4.52849 7.82035 6.20046C7.94503 7.87242 8.66568 9.4441 9.85122 10.6296C11.0368 11.8152 12.6084 12.5358 14.2804 12.6605C15.9524 12.7852 17.6135 12.3056 18.9618 11.309Z" stroke="#757575" stroke-width="2" stroke-linecap="round" stroke-linejoin="round"/>
</svg>
